# xmcd CD database file
#
# Track frame offsets:
#	150
#	12465
#	26437
#	37554
#	51750
#	63230
#	76538
#	91841
#	104095
#	115139
#	128553
#	143890
#	157790
#	184399
#	197621
#
# Disc length: 3668 seconds
#
# Revision: 0
# Processed by: cddbd v1.5.1PL0 Copyright (c) Steve Scherf et al.
# Submitted via: CDex 1.51
#
DISCID=b10e520f
DTITLE=Charlie Parker - Constellation CD 3
DYEAR=2004
DGENRE=Jazz
TTITLE0=Chasin' The Bird
TTITLE1=Dark Shadows
TTITLE2=Buzzy
TTITLE3=Dewey Square
TTITLE4=The Hymn
TTITLE5=Cheryl
TTITLE6=Embraceable You
TTITLE7=Charlie's Wig
TTITLE8=Constellation
TTITLE9=Crazeologie
TTITLE10=How Deep Is The Ocean
TTITLE11=My Little Suede Shoes
TTITLE12=No Noise (Part 1+2)
TTITLE13=Mango Mangue
TTITLE14=Afro-Cuban Jazz Suite
EXTD=YEAR: 2004
EXTT0=
EXTT1=
EXTT2=
EXTT3=
EXTT4=
EXTT5=
EXTT6=
EXTT7=
EXTT8=
EXTT9=
EXTT10=
EXTT11=
EXTT12=
EXTT13=
EXTT14=
PLAYORDER=
